<?xml version="1.0" encoding="UTF-8" standalone="no"?>
<!-- Created with Inkscape (http://www.inkscape.org/) -->

<svg
   width="111.62953mm"
   height="22.519608mm"
   viewBox="0 0 111.62953 22.519608"
   version="1.1"
   id="svg5"
   xml:space="preserve"
   sodipodi:docname="Logo.svg"
   inkscape:version="1.2.2 (732a01da63, 2022-12-09)"
   xmlns:inkscape="http://www.inkscape.org/namespaces/inkscape"
   xmlns:sodipodi="http://sodipodi.sourceforge.net/DTD/sodipodi-0.dtd"
   xmlns="http://www.w3.org/2000/svg"
   xmlns:svg="http://www.w3.org/2000/svg"><sodipodi:namedview
     id="namedview7"
     pagecolor="#ffffff"
     bordercolor="#000000"
     borderopacity="0.25"
     inkscape:showpageshadow="2"
     inkscape:pageopacity="0.0"
     inkscape:pagecheckerboard="0"
     inkscape:deskcolor="#d1d1d1"
     inkscape:document-units="mm"
     showgrid="false"
     showguides="false"
     inkscape:zoom="0.50000001"
     inkscape:cx="579.99998"
     inkscape:cy="606.99998"
     inkscape:window-width="1280"
     inkscape:window-height="730"
     inkscape:window-x="-6"
     inkscape:window-y="-6"
     inkscape:window-maximized="1"
     inkscape:current-layer="layer1"><sodipodi:guide
       position="24.554029,58.838378"
       orientation="0,-1"
       id="guide3304"
       inkscape:locked="false" /><sodipodi:guide
       position="42.513478,96.076387"
       orientation="1,0"
       id="guide3578"
       inkscape:locked="false" /><sodipodi:guide
       position="41.957438,95.615427"
       orientation="1,0"
       id="guide3582"
       inkscape:locked="false" /><sodipodi:guide
       position="43.065378,95.286767"
       orientation="1,0"
       id="guide3584"
       inkscape:locked="false" /></sodipodi:namedview><defs
     id="defs2" /><g
     inkscape:label="Layer 1"
     inkscape:groupmode="layer"
     id="layer1"
     style="display:inline"
     transform="translate(-85.123171,-166.57435)"><g
       id="g5858"
       transform="translate(0,29.368749)"
       inkscape:export-filename="logo-white.png"
       inkscape:export-xdpi="150"
       inkscape:export-ydpi="150"><g
         id="g5850"
         transform="translate(67.43496,-122.64871)"
         style="fill:#ffffff;fill-opacity:1"><path
           style="fill:#ffffff;fill-opacity:1;stroke-width:0.169333"
           d="m 45.497748,281.52724 v -0.84667 h 41.909999 41.910003 v 0.84667 0.84667 H 87.407747 45.497748 Z m 4.357704,-3.90958 -0.637632,-0.15022 -0.632368,-0.32642 -0.632371,-0.32642 c -2.418671,-2.96874 -2.748406,-6.39725 -1.30889,-9.46734 l 1.2874,-1.425 0.857411,-0.43662 0.857413,-0.43662 1.210481,-0.0794 1.210481,-0.0794 0.943146,0.29666 0.943144,0.29665 0.689478,0.59017 0.689478,0.59017 0.389749,0.78534 0.389751,0.78534 0.212693,0.84667 0.212691,0.84667 0.06281,0.21166 0.06281,0.21167 H 54.839373 53.01563 l -0.356134,-0.84294 -0.356133,-0.84295 -0.446297,-0.20334 -0.446296,-0.20335 -0.449897,0.15822 -0.449897,0.15822 -0.33465,0.573 -0.33465,0.573 -0.0674,1.28874 -0.0674,1.28873 0.393104,0.76043 0.393102,0.76042 0.446155,0.2455 0.446154,0.24551 0.449538,-0.29455 0.449537,-0.29455 0.278671,-0.58438 0.27867,-0.58438 h 1.850149 1.85015 l -0.11779,0.62788 -0.11779,0.62787 -0.465189,1.02595 -0.46519,1.02596 -0.788316,0.6939 -0.788317,0.69391 -0.986992,0.27693 -0.986991,0.27694 -0.666224,-0.017 -0.666225,-0.017 z m 11.956504,0.0186 -0.703793,-0.14992 -0.683677,-0.34879 -0.683675,-0.34878 -0.626013,-0.63642 -0.626012,-0.63642 -0.403984,-0.87164 -0.403985,-0.87164 -0.140565,-1.16036 -0.140565,-1.16036 0.134625,-1.2082 0.134623,-1.2082 0.272242,-0.65447 0.272241,-0.65447 0.44874,-0.64973 0.44874,-0.64974 0.718033,-0.49402 0.718034,-0.49402 1.069059,-0.27407 1.069057,-0.27407 1.17579,0.0984 1.175789,0.0984 1.061849,0.52275 1.061849,0.52274 0.512836,0.62216 0.512834,0.62216 0.342794,0.72926 0.342793,0.72926 0.196758,1.26561 0.196761,1.2656 -0.200606,1.29034 -0.200604,1.29034 -0.535319,1.00436 -0.535318,1.00436 -0.522102,0.4417 -0.522104,0.4417 -0.861531,0.3961 -0.861532,0.39611 -1.255134,0.077 -1.255136,0.077 z m 2.168654,-3.57333 0.341929,-0.18299 0.320552,-0.70601 0.320553,-0.706 0.0037,-1.17421 0.0037,-1.1742 -0.340358,-0.70309 -0.34036,-0.70309 -0.434955,-0.23278 -0.434954,-0.23278 -0.443875,0.24914 -0.443874,0.24914 -0.320956,0.54955 -0.320956,0.54956 -0.08735,0.97271 -0.08735,0.97271 0.192617,0.71197 0.192617,0.71197 0.433932,0.5157 0.433933,0.5157 h 0.334747 0.334745 l 0.341931,-0.183 z m 6.747804,-2.69567 v -6.26533 h 1.265682 1.265682 l 2.247985,3.76766 2.247984,3.76767 0.04557,-3.76767 0.04557,-3.76766 h 1.26676 1.266761 v 6.26533 6.26533 H 79.0447 77.708992 l -2.177959,-3.65728 -2.177958,-3.65728 -0.04564,3.65728 -0.04564,3.65728 h -1.266698 -1.266698 z m 10.502515,6.22959 0.0038,-0.0489 2.33318,-6.18067 2.333179,-6.18067 h 1.410835 1.410834 l 2.265892,5.842 2.265892,5.842 0.100601,0.381 0.100602,0.381 h -1.435212 -1.435211 l -0.54324,-1.43933 -0.54324,-1.43933 h -2.174567 -2.174567 l -0.268456,0.71966 -0.268456,0.71967 -0.227805,0.67733 -0.227808,0.67734 -1.465075,0.0489 -1.465077,0.0489 0.0038,-0.0489 z m 7.277485,-5.28817 v -0.2439 l -0.445061,-1.23776 -0.445062,-1.23776 -0.165483,-0.42333 -0.165482,-0.42334 -0.552887,1.524 -0.552887,1.524 -0.11798,0.381 -0.117981,0.381 h 1.281411 1.281412 z m 5.757333,-0.95619 v -6.29379 l 3.344333,0.0793 3.34433,0.0794 0.59267,0.25723 0.59267,0.25723 0.48937,0.48937 0.48937,0.48937 0.25287,0.59267 0.25287,0.59267 0.0125,1.11934 0.0125,1.11935 -0.4253,0.82644 -0.4253,0.82643 -0.69401,0.48777 -0.69401,0.48777 -2.128366,0.1789 -2.128369,0.17891 -0.04704,2.21354 -0.04705,2.21355 -1.397,0.0492 -1.397,0.0492 z m 5.334,-0.82758 0.677333,-0.15694 0.29633,-0.36578 0.29634,-0.36578 v -0.56447 -0.56446 l -0.39719,-0.46176 -0.39719,-0.46176 -1.465478,-0.0769 -1.465479,-0.0769 v 1.62991 1.6299 l 0.889,-0.004 0.889,-0.004 0.677334,-0.15694 z m 3.302003,6.95334 v -0.15433 l 2.286,-6.05068 2.286,-6.05068 v -0.0603 -0.0603 l 1.397,8e-5 1.397,8e-5 2.37066,6.11612 2.37067,6.11612 0.0564,0.14913 0.0564,0.14913 -1.49578,-6.7e-4 -1.49578,-6.8e-4 -0.50984,-1.39635 -0.50985,-1.39634 h -2.19764 -2.19764 l -0.50985,1.39634 -0.50984,1.39635 -1.397,6.8e-4 -1.397,6.7e-4 z m 7.28133,-5.02629 v -0.10064 l -0.62617,-1.7624 -0.62617,-1.76239 -0.10849,0.12737 -0.10849,0.12736 -0.53534,1.49889 -0.53534,1.49888 v 0.23678 0.23678 h 1.27 1.27 z m 5.75733,-1.0847 v -6.26533 l 1.905,3.2e-4 1.905,3.2e-4 0.9145,3.598 0.91451,3.59801 0.12077,0.13781 0.12078,0.13781 0.92155,-3.69381 0.92156,-3.6938 1.98016,-0.0477 1.98017,-0.0477 v 6.27071 6.2707 h -1.27 -1.27 v -3.84386 -3.84387 l -0.15077,0.16087 -0.15077,0.16086 -0.88445,3.68978 -0.88445,3.68978 -1.29066,-0.0491 -1.29067,-0.0491 -0.93378,-3.81 -0.93378,-3.81 -0.0455,3.85233 -0.0455,3.85233 h -1.26682 -1.26682 z M 45.497748,260.86857 v -0.84666 h 41.909999 41.910003 v 0.84666 0.84667 H 87.407747 45.497748 Z"
           id="path5848"
           sodipodi:nodetypes="cccccccccccccccccccccccccccccccccccccccccccccccccccccccccccccccccccccccccccccccccccccccccccccccccccccccccccccccccccccccccccccccccccccccccccccccccccccccccccccccccccccccccccccccccccccccccccccccccccccccccccccccccccccccccccccccccccccccccccccccccccccccccccccccccccccccccccccccccccccccccccccccccccccccccccc" /></g><g
         id="g5856"
         transform="translate(67.50139,-122.81631)"><path
           style="fill:#ffffff;fill-opacity:1;stroke-width:0.169333"
           d="m 25.516415,281.19325 -1.100666,-0.30343 -0.973667,-0.44115 -0.973667,-0.44116 v -0.0928 -0.0928 l 0.327535,0.17529 0.327534,0.17529 0.222799,-0.005 0.222799,-0.005 -0.677333,-0.41601 -0.677334,-0.41602 -0.273129,0.0867 -0.27313,0.0867 -0.67241,-0.55439 -0.67241,-0.55438 -0.57846,-0.72045 -0.57846,-0.72044 -0.04748,-0.21089 -0.04748,-0.21088 0.216816,0.33866 0.216816,0.33867 1.030111,1.05833 1.030111,1.05834 h 0.202561 0.20256 l -1.10312,-1.29285 -1.103119,-1.29285 -0.685188,-1.35474 -0.685187,-1.35474 0.0885,-0.0885 0.0885,-0.0885 -0.172462,-0.2078 -0.172462,-0.2078 -0.10228,-2.17845 -0.102281,-2.17844 0.269305,-0.63915 0.269304,-0.63915 -0.09588,-0.24985 -0.09588,-0.24985 h 0.18745 0.18745 v -0.19613 -0.19613 l 0.700652,-1.53954 0.700651,-1.53953 0.438983,-0.59267 0.438983,-0.59267 -0.504635,0.30615 -0.504634,0.30615 0.906119,-0.86136 0.906118,-0.86136 0.60893,-0.25443 0.608929,-0.25443 0.232611,0.0893 0.232611,0.0893 0.893347,-0.42262 0.893347,-0.42262 0.152994,0.003 0.152994,0.003 -1.185333,0.61046 -1.185334,0.61046 -0.593216,0.46791 -0.593217,0.46791 -0.403746,0.73853 -0.403747,0.73853 0.912296,-0.86441 0.912297,-0.86441 0.809374,-0.60251 0.809375,-0.60252 1.610597,-0.28999 1.610597,-0.28999 0.108739,0.10873 0.10874,0.10874 -0.158044,0.14523 -0.158045,0.14523 -1.131291,0.3584 -1.131292,0.35841 -1.070042,0.62532 -1.070041,0.62532 -0.879148,0.8977 -0.879148,0.89771 -0.521767,1.09327 -0.521768,1.09326 -0.184826,0.98359 -0.184827,0.98359 0.09147,1.45682 0.09147,1.45681 0.45388,1.08319 0.45388,1.08318 0.762609,1.07234 0.762609,1.07233 1.001723,0.73743 1.001723,0.73743 0.969394,0.3867 0.969393,0.38671 2.201334,-0.001 2.201333,-10e-4 1.501585,-0.47135 1.501584,-0.47134 1.038416,-1.05032 1.038415,-1.05033 0.548079,-1.03196 0.54808,-1.03197 0.360707,-1.50452 0.360707,-1.50453 -0.09911,-1.67952 -0.09911,-1.67952 0.14477,0.15552 0.144769,0.15552 0.18855,1.11454 0.188551,1.11454 v 0.53646 0.53646 h 0.16166 0.16166 l 0.106207,-0.635 0.106208,-0.635 0.132859,-0.42333 0.132859,-0.42333 0.129805,0.99784 0.129806,0.99785 -0.09646,1.15062 -0.09646,1.15062 0.161468,0.0538 0.161468,0.0538 -0.370656,1.09972 -0.370657,1.09971 -0.295747,0.48777 -0.295748,0.48778 0.06585,0.18956 0.06585,0.18955 -0.473348,0.84667 -0.473347,0.84667 -0.927124,0.72053 -0.927122,0.72054 -1.430845,0.6098 -1.430846,0.6098 -0.39657,0.0894 -0.39657,0.0894 0.227237,0.16031 0.227236,0.16031 -0.479855,-0.10515 -0.479855,-0.10515 0.09788,0.15838 0.09788,0.15838 -0.266876,0.10241 -0.266876,0.10248 -2.314485,-0.0153 -2.314484,-0.0153 z m 0.699968,-0.28101 -0.570032,-0.24871 -0.08955,0.0896 -0.08955,0.0895 0.405585,0.16224 0.405584,0.16224 0.254,-0.003 0.254,-0.003 -0.570032,-0.24871 z m 4.755614,-0.57223 1.137579,-0.16452 1.082877,-0.43351 1.082876,-0.4335 0.188913,-0.41462 0.188912,-0.41462 h -0.0768 -0.0768 l -1.102924,0.50515 -1.102924,0.50515 -1.303875,0.34152 -1.303874,0.34151 -0.687775,0.0169 -0.687775,0.0169 0.423334,0.13558 0.423333,0.13557 0.338667,0.0135 0.338666,0.0135 1.137582,-0.16452 z m 4.927217,-1.88593 0.369868,-0.19449 0.508,-0.41286 0.508,-0.41286 0.465666,-0.60815 0.465667,-0.60814 v -0.15974 -0.15974 l -0.970986,0.8249 -0.970986,0.82491 -0.538897,0.55033 -0.538896,0.55033 h 0.166348 0.166348 z m -15.743032,-1.92948 -0.100272,-0.2613 -0.0807,0.0807 -0.0807,0.0807 0.111616,0.1806 0.111617,0.1806 h 0.06936 0.06936 z m -0.472165,-0.79237 -0.263602,-0.37635 v -0.21816 -0.21817 l -0.323294,-0.71782 -0.323295,-0.71782 -0.100294,-0.254 -0.100294,-0.254 0.100286,0.67733 0.100285,0.67733 0.420267,0.889 0.420267,0.889 h 0.166638 0.166638 z m -1.163928,-6.59807 -0.08894,-0.22225 -0.01337,0.32455 -0.01337,0.32456 0.102305,-0.10231 0.102306,-0.1023 z m 0.169334,-1.016 -0.08894,-0.22225 -0.01337,0.32455 -0.01337,0.32456 0.102305,-0.10231 0.102306,-0.1023 z m -0.218901,7.54878 -0.255279,-0.61097 0.06818,-0.0682 0.06818,-0.0682 0.266779,0.67915 0.266779,0.67916 h -0.07969 -0.07968 z m -0.710428,-2.35237 0.0063,-0.508 0.07806,0.29956 0.07806,0.29956 -0.08433,0.20844 -0.08434,0.20844 0.0063,-0.508 z m -0.1377,-2.54 6.1e-4,-2.032 0.06029,1.06497 0.06029,1.06497 -0.0609,0.96703 -0.0609,0.96703 z m 0.1377,-2.54 0.0063,-0.508 0.07806,0.29956 0.07806,0.29956 -0.08433,0.20844 -0.08434,0.20844 0.0063,-0.508 z m 0.572052,-1.94733 0.113236,-0.42333 0.156935,-0.254 0.156936,-0.254 -0.113235,0.42333 -0.113235,0.42333 -0.156936,0.254 -0.156936,0.254 z m 0.845156,-1.74297 0.115619,-0.30364 0.09479,0.0948 0.09479,0.0948 -0.21041,0.20884 -0.21041,0.20885 z m 0.497113,-0.79703 0.30649,-0.33867 h 0.08467 0.08467 l -0.306489,0.33867 -0.306489,0.33867 h -0.08467 -0.08467 z"
           id="path5852" /><path
           style="fill:#fdd654;stroke-width:0.169333"
           d="m 30.935082,276.95266 -0.762,-0.13208 -0.901734,-0.35855 -0.901734,-0.35855 -0.553902,-0.37846 -0.553902,-0.37845 -0.576364,-0.51077 -0.576364,-0.51077 -0.537177,-0.68232 -0.537178,-0.68232 -0.423716,-0.9581 -0.423717,-0.95809 -0.194413,-1.28255 -0.194413,-1.28255 0.186649,-1.22293 0.186648,-1.22293 0.589853,-1.24986 0.589852,-1.24986 1.095434,-1.07408 1.095433,-1.07408 0.846861,-0.42914 0.846861,-0.42914 0.969755,-0.25258 0.969755,-0.25259 1.19209,0.002 1.192089,0.002 1.037692,0.24472 1.03769,0.24471 1.01958,0.59756 1.019579,0.59756 0.703902,0.73857 0.703903,0.73857 0.435238,0.64051 0.435236,0.64051 0.427903,1.03581 0.427904,1.03581 0.01123,1.94733 0.01123,1.94734 -0.478547,1.143 -0.478548,1.143 H 39.647591 39.42145 l 0.09735,-1.16116 0.09735,-1.16115 -0.129806,-0.99785 -0.129806,-0.99784 -0.132859,0.42333 -0.132859,0.42333 -0.106208,0.635 -0.106207,0.635 H 38.716741 38.55508 v -0.53646 -0.53646 l -0.188551,-1.11454 -0.188549,-1.11454 -0.14477,-0.15552 -0.14477,-0.15552 0.09911,1.67952 0.09911,1.67952 -0.360707,1.50453 -0.360707,1.50452 -0.514623,0.96554 -0.514624,0.96553 -0.71079,0.78796 -0.710789,0.78795 -1.100666,0.16971 -1.100667,0.1697 -0.508,-0.0186 -0.508,-0.0186 -0.762,-0.13208 z"
           id="path5854" /></g></g></g></svg>
